<svg width="59" height="59" viewBox="0 0 59 59" fill="none" xmlns="http://www.w3.org/2000/svg">
<g clip-path="url(#clip0_78_82)">
<path d="M41.6477 17.508C39.2605 15.1209 36.219 13.4952 32.9079 12.8365C29.5968 12.1779 26.1648 12.5159 23.0458 13.8079C19.9268 15.0998 17.2609 17.2876 15.3853 20.0947C13.5097 22.9017 12.5086 26.2018 12.5086 29.5778C12.5086 32.9538 13.5097 36.254 15.3853 39.061C17.2609 41.868 19.9268 44.0558 23.0458 45.3478C26.1648 46.6397 29.5968 46.9777 32.9079 46.3191C36.219 45.6605 39.2605 44.0348 41.6477 41.6476C43.2327 40.0626 44.49 38.1809 45.3478 36.11C46.2056 34.039 46.6472 31.8194 46.6472 29.5778C46.6472 27.3363 46.2056 25.1166 45.3478 23.0457C44.49 20.9748 43.2327 19.0931 41.6477 17.508V17.508ZM19.922 39.2337C18.0123 37.3239 16.7118 34.8908 16.1849 32.2419C15.658 29.593 15.9284 26.8473 16.9619 24.3521C17.9955 21.8569 19.7457 19.7242 21.9913 18.2238C24.237 16.7233 26.8771 15.9224 29.5779 15.9224C32.2787 15.9224 34.9188 16.7233 37.1644 18.2238C39.4101 19.7242 41.1603 21.8569 42.1938 24.3521C43.2274 26.8473 43.4978 29.593 42.9709 32.2419C42.444 34.8908 41.1435 37.3239 39.2337 39.2337C36.6728 41.7946 33.1995 43.2332 29.5779 43.2332C25.9562 43.2332 22.4829 41.7946 19.922 39.2337V39.2337ZM35.6128 33.1988L31.9918 29.5778L35.6128 25.9569C35.9329 25.6368 36.1127 25.2026 36.1127 24.7499C36.1127 24.2972 35.9329 23.863 35.6128 23.5429C35.2927 23.2228 34.8585 23.043 34.4058 23.043C33.9531 23.043 33.5189 23.2228 33.1988 23.5429L29.5779 27.1639L25.9569 23.5429C25.6368 23.2228 25.2027 23.043 24.75 23.043C24.2973 23.043 23.8631 23.2228 23.543 23.5429C23.2229 23.863 23.043 24.2972 23.043 24.7499C23.043 25.2026 23.2229 25.6368 23.543 25.9569L27.1639 29.5778L23.543 33.1988C23.2229 33.5189 23.043 33.953 23.043 34.4058C23.043 34.8585 23.2229 35.2926 23.543 35.6127C23.8631 35.9328 24.2973 36.1127 24.75 36.1127C25.2027 36.1127 25.6368 35.9328 25.9569 35.6127L29.5779 31.9918L33.1988 35.6127C33.5189 35.9328 33.9531 36.1127 34.4058 36.1127C34.8585 36.1127 35.2927 35.9328 35.6128 35.6127C35.9329 35.2926 36.1127 34.8585 36.1127 34.4058C36.1127 33.953 35.9329 33.5189 35.6128 33.1988Z" fill="#FF0000"/>
</g>
<defs>
<clipPath id="clip0_78_82">
<rect width="40.9662" height="40.9662" fill="white" transform="translate(29.5779 0.610352) rotate(45)"/>
</clipPath>
</defs>
</svg>
