<svg width="41" height="41" viewBox="0 0 41 41" fill="none" xmlns="http://www.w3.org/2000/svg">
<path d="M25.1467 15.0163L17.8179 22.3622L14.9992 19.5434C14.846 19.3646 14.6576 19.2193 14.4456 19.1168C14.2337 19.0143 14.0028 18.9566 13.7676 18.9476C13.5323 18.9385 13.2977 18.9781 13.0785 19.064C12.8593 19.1499 12.6602 19.2802 12.4937 19.4466C12.3272 19.6131 12.1969 19.8122 12.111 20.0314C12.0251 20.2507 11.9855 20.4853 11.9946 20.7205C12.0037 20.9558 12.0613 21.1867 12.1638 21.3986C12.2664 21.6106 12.4116 21.799 12.5904 21.9522L16.605 25.9838C16.7647 26.1422 16.954 26.2674 17.1621 26.3524C17.3702 26.4375 17.5931 26.4805 17.8179 26.4792C18.2661 26.4774 18.6956 26.2994 19.0138 25.9838L27.5554 17.4422C27.7156 17.2834 27.8427 17.0944 27.9294 16.8862C28.0161 16.6781 28.0608 16.4548 28.0608 16.2292C28.0608 16.0037 28.0161 15.7804 27.9294 15.5723C27.8427 15.3641 27.7156 15.1751 27.5554 15.0163C27.2354 14.6982 26.8024 14.5196 26.3511 14.5196C25.8998 14.5196 25.4668 14.6982 25.1467 15.0163ZM20.5 3.41675C17.1213 3.41675 13.8184 4.41867 11.009 6.29581C8.1997 8.17295 6.01008 10.841 4.71709 13.9626C3.42409 17.0841 3.08578 20.519 3.74495 23.8329C4.40411 27.1467 6.03114 30.1907 8.42029 32.5798C10.8094 34.969 13.8534 36.596 17.1672 37.2552C20.4811 37.9143 23.916 37.576 27.0375 36.283C30.1591 34.99 32.8272 32.8004 34.7043 29.9911C36.5814 27.1817 37.5834 23.8788 37.5834 20.5001C37.5834 18.2567 37.1415 16.0352 36.283 13.9626C35.4244 11.8899 34.1661 10.0067 32.5798 8.42034C30.9934 6.83401 29.1102 5.57566 27.0375 4.71714C24.9649 3.85862 22.7434 3.41675 20.5 3.41675ZM20.5 34.1667C17.797 34.1667 15.1547 33.3652 12.9072 31.8635C10.6598 30.3618 8.90807 28.2273 7.87367 25.7301C6.83928 23.2328 6.56863 20.4849 7.09596 17.8338C7.62329 15.1828 8.92492 12.7476 10.8362 10.8363C12.7476 8.92497 15.1827 7.62335 17.8338 7.09602C20.4849 6.56868 23.2328 6.83933 25.73 7.87373C28.2273 8.90813 30.3617 10.6598 31.8634 12.9073C33.3652 15.1548 34.1667 17.7971 34.1667 20.5001C34.1667 24.1247 32.7268 27.6009 30.1638 30.1639C27.6008 32.7269 24.1247 34.1667 20.5 34.1667Z" fill="#34B71E"/>
</svg>
